<?xml version="1.0" encoding="UTF-8" standalone="no"?>
<!DOCTYPE svg PUBLIC "-//W3C//DTD SVG 1.1//EN" "http://www.w3.org/Graphics/SVG/1.1/DTD/svg11.dtd">
<svg xmlns="http://www.w3.org/2000/svg" version="1.1" viewBox="0.00 0.00 800.00 800.00">
<g stroke-width="2.00" fill="none" stroke-linecap="butt">
<path stroke="#878787" vector-effect="non-scaling-stroke" d="
  M 309.58 506.15
  C 309.53 490.97 298.02 480.49 283.20 479.99
  Q 271.06 479.58 266.30 479.76
  C 256.22 480.15 248.02 478.86 240.25 473.79
  Q 228.96 466.43 225.20 454.54
  Q 223.99 450.71 223.38 431.81
  C 222.61 407.99 222.32 390.09 224.92 369.64
  C 234.90 290.81 295.86 230.22 374.20 218.72
  C 425.24 211.22 476.13 225.74 515.09 259.18
  C 551.81 290.69 574.10 335.49 576.30 384.05
  C 577.25 405.13 576.44 420.09 575.58 445.18
  Q 575.33 452.43 574.40 455.36
  C 570.24 468.42 558.18 477.32 544.71 478.91
  C 535.09 480.04 522.60 479.62 516.01 480.00
  C 500.65 480.90 489.99 491.63 490.10 507.27
  Q 490.61 581.44 489.93 629.17
  Q 489.82 636.92 490.61 639.97
  C 493.13 649.82 499.01 657.16 508.44 660.52
  Q 513.17 662.20 521.74 661.90
  Q 523.97 661.82 627.75 661.82
  C 644.27 661.82 654.79 649.28 654.83 633.26
  Q 655.08 516.84 654.74 390.00
  C 654.58 330.92 634.63 274.79 596.01 230.55
  Q 564.72 194.70 524.89 170.91
  C 477.03 142.32 422.21 132.57 366.85 140.89
  Q 332.12 146.10 303.05 157.60
  C 216.48 191.84 156.97 272.52 146.40 364.51
  Q 144.81 378.38 145.03 415.03
  Q 145.14 434.42 145.05 631.13
  Q 145.05 638.39 145.67 641.28
  C 147.53 649.96 153.47 657.22 161.70 660.29
  Q 165.88 661.85 175.02 661.86
  Q 215.76 661.88 277.89 661.83
  Q 288.39 661.82 292.83 660.21
  C 302.99 656.52 309.57 646.81 309.61 635.89
  Q 309.83 576.65 309.58 506.15"
/>
<path stroke="#878787" vector-effect="non-scaling-stroke" d="
  M 370.80 326.41
  Q 364.37 330.12 358.99 335.62
  A 0.80 0.80 0.0 0 1 358.01 335.75
  Q 341.17 325.62 323.52 315.71
  Q 318.98 313.17 316.78 312.75
  C 311.26 311.72 306.46 313.57 303.65 318.43
  C 300.85 323.29 301.64 328.37 305.30 332.64
  Q 306.76 334.33 311.23 336.99
  Q 328.64 347.32 345.84 356.84
  A 0.80 0.80 0.0 0 1 346.22 357.75
  Q 344.14 365.16 344.14 372.58
  Q 344.14 380.01 346.22 387.41
  A 0.80 0.80 0.0 0 1 345.84 388.32
  Q 328.65 397.84 311.24 408.17
  Q 306.77 410.84 305.31 412.53
  C 301.65 416.80 300.85 421.88 303.66 426.74
  C 306.47 431.60 311.27 433.45 316.79 432.41
  Q 318.99 432.00 323.53 429.46
  Q 341.18 419.54 358.02 409.41
  A 0.80 0.80 0.0 0 1 359.00 409.54
  Q 364.37 415.04 370.80 418.75
  Q 377.23 422.46 384.69 424.37
  A 0.80 0.80 0.0 0 1 385.29 425.15
  Q 384.93 444.80 385.18 465.04
  Q 385.25 470.24 385.99 472.36
  C 387.85 477.66 391.86 480.89 397.47 480.89
  C 403.08 480.89 407.08 477.66 408.94 472.35
  Q 409.68 470.24 409.75 465.04
  Q 409.99 444.80 409.64 425.15
  A 0.80 0.80 0.0 0 1 410.24 424.37
  Q 417.69 422.46 424.12 418.75
  Q 430.55 415.03 435.92 409.53
  A 0.80 0.80 0.0 0 1 436.90 409.40
  Q 453.74 419.53 471.39 429.44
  Q 475.93 431.98 478.13 432.40
  C 483.66 433.43 488.46 431.58 491.26 426.72
  C 494.07 421.87 493.27 416.78 489.61 412.52
  Q 488.15 410.82 483.68 408.16
  Q 466.27 397.83 449.08 388.32
  A 0.80 0.80 0.0 0 1 448.70 387.40
  Q 450.77 380.00 450.77 372.57
  Q 450.77 365.15 448.69 357.74
  A 0.80 0.80 0.0 0 1 449.07 356.83
  Q 466.27 347.31 483.67 336.98
  Q 488.14 334.32 489.60 332.62
  C 493.26 328.35 494.06 323.27 491.25 318.41
  C 488.45 313.55 483.65 311.70 478.12 312.74
  Q 475.92 313.16 471.38 315.70
  Q 453.73 325.61 436.90 335.74
  A 0.80 0.80 0.0 0 1 435.92 335.61
  Q 430.54 330.12 424.11 326.40
  Q 417.68 322.69 410.23 320.79
  A 0.80 0.80 0.0 0 1 409.63 320.00
  Q 409.98 300.35 409.74 280.11
  Q 409.67 274.91 408.93 272.80
  C 407.06 267.50 403.06 264.26 397.45 264.26
  C 391.84 264.27 387.83 267.50 385.97 272.80
  Q 385.23 274.91 385.16 280.11
  Q 384.92 300.36 385.28 320.00
  A 0.80 0.80 0.0 0 1 384.68 320.79
  Q 377.23 322.70 370.80 326.41"
/>
</g>
<path fill="#0f0f0f" d="
  M 778.00 697.99
  A 80.01 80.01 0.0 0 1 697.99 778.00
  L 102.01 778.00
  A 80.01 80.01 0.0 0 1 22.00 697.99
  L 22.00 102.01
  A 80.01 80.01 0.0 0 1 102.01 22.00
  L 697.99 22.00
  A 80.01 80.01 0.0 0 1 778.00 102.01
  L 778.00 697.99
  Z
  M 309.58 506.15
  C 309.53 490.97 298.02 480.49 283.20 479.99
  Q 271.06 479.58 266.30 479.76
  C 256.22 480.15 248.02 478.86 240.25 473.79
  Q 228.96 466.43 225.20 454.54
  Q 223.99 450.71 223.38 431.81
  C 222.61 407.99 222.32 390.09 224.92 369.64
  C 234.90 290.81 295.86 230.22 374.20 218.72
  C 425.24 211.22 476.13 225.74 515.09 259.18
  C 551.81 290.69 574.10 335.49 576.30 384.05
  C 577.25 405.13 576.44 420.09 575.58 445.18
  Q 575.33 452.43 574.40 455.36
  C 570.24 468.42 558.18 477.32 544.71 478.91
  C 535.09 480.04 522.60 479.62 516.01 480.00
  C 500.65 480.90 489.99 491.63 490.10 507.27
  Q 490.61 581.44 489.93 629.17
  Q 489.82 636.92 490.61 639.97
  C 493.13 649.82 499.01 657.16 508.44 660.52
  Q 513.17 662.20 521.74 661.90
  Q 523.97 661.82 627.75 661.82
  C 644.27 661.82 654.79 649.28 654.83 633.26
  Q 655.08 516.84 654.74 390.00
  C 654.58 330.92 634.63 274.79 596.01 230.55
  Q 564.72 194.70 524.89 170.91
  C 477.03 142.32 422.21 132.57 366.85 140.89
  Q 332.12 146.10 303.05 157.60
  C 216.48 191.84 156.97 272.52 146.40 364.51
  Q 144.81 378.38 145.03 415.03
  Q 145.14 434.42 145.05 631.13
  Q 145.05 638.39 145.67 641.28
  C 147.53 649.96 153.47 657.22 161.70 660.29
  Q 165.88 661.85 175.02 661.86
  Q 215.76 661.88 277.89 661.83
  Q 288.39 661.82 292.83 660.21
  C 302.99 656.52 309.57 646.81 309.61 635.89
  Q 309.83 576.65 309.58 506.15
  Z
  M 370.80 326.41
  Q 364.37 330.12 358.99 335.62
  A 0.80 0.80 0.0 0 1 358.01 335.75
  Q 341.17 325.62 323.52 315.71
  Q 318.98 313.17 316.78 312.75
  C 311.26 311.72 306.46 313.57 303.65 318.43
  C 300.85 323.29 301.64 328.37 305.30 332.64
  Q 306.76 334.33 311.23 336.99
  Q 328.64 347.32 345.84 356.84
  A 0.80 0.80 0.0 0 1 346.22 357.75
  Q 344.14 365.16 344.14 372.58
  Q 344.14 380.01 346.22 387.41
  A 0.80 0.80 0.0 0 1 345.84 388.32
  Q 328.65 397.84 311.24 408.17
  Q 306.77 410.84 305.31 412.53
  C 301.65 416.80 300.85 421.88 303.66 426.74
  C 306.47 431.60 311.27 433.45 316.79 432.41
  Q 318.99 432.00 323.53 429.46
  Q 341.18 419.54 358.02 409.41
  A 0.80 0.80 0.0 0 1 359.00 409.54
  Q 364.37 415.04 370.80 418.75
  Q 377.23 422.46 384.69 424.37
  A 0.80 0.80 0.0 0 1 385.29 425.15
  Q 384.93 444.80 385.18 465.04
  Q 385.25 470.24 385.99 472.36
  C 387.85 477.66 391.86 480.89 397.47 480.89
  C 403.08 480.89 407.08 477.66 408.94 472.35
  Q 409.68 470.24 409.75 465.04
  Q 409.99 444.80 409.64 425.15
  A 0.80 0.80 0.0 0 1 410.24 424.37
  Q 417.69 422.46 424.12 418.75
  Q 430.55 415.03 435.92 409.53
  A 0.80 0.80 0.0 0 1 436.90 409.40
  Q 453.74 419.53 471.39 429.44
  Q 475.93 431.98 478.13 432.40
  C 483.66 433.43 488.46 431.58 491.26 426.72
  C 494.07 421.87 493.27 416.78 489.61 412.52
  Q 488.15 410.82 483.68 408.16
  Q 466.27 397.83 449.08 388.32
  A 0.80 0.80 0.0 0 1 448.70 387.40
  Q 450.77 380.00 450.77 372.57
  Q 450.77 365.15 448.69 357.74
  A 0.80 0.80 0.0 0 1 449.07 356.83
  Q 466.27 347.31 483.67 336.98
  Q 488.14 334.32 489.60 332.62
  C 493.26 328.35 494.06 323.27 491.25 318.41
  C 488.45 313.55 483.65 311.70 478.12 312.74
  Q 475.92 313.16 471.38 315.70
  Q 453.73 325.61 436.90 335.74
  A 0.80 0.80 0.0 0 1 435.92 335.61
  Q 430.54 330.12 424.11 326.40
  Q 417.68 322.69 410.23 320.79
  A 0.80 0.80 0.0 0 1 409.63 320.00
  Q 409.98 300.35 409.74 280.11
  Q 409.67 274.91 408.93 272.80
  C 407.06 267.50 403.06 264.26 397.45 264.26
  C 391.84 264.27 387.83 267.50 385.97 272.80
  Q 385.23 274.91 385.16 280.11
  Q 384.92 300.36 385.28 320.00
  A 0.80 0.80 0.0 0 1 384.68 320.79
  Q 377.23 322.70 370.80 326.41
  Z"
/>
<path fill="#ffffff" d="
  M 283.20 479.99
  C 298.02 480.49 309.53 490.97 309.58 506.15
  Q 309.83 576.65 309.61 635.89
  C 309.57 646.81 302.99 656.52 292.83 660.21
  Q 288.39 661.82 277.89 661.83
  Q 215.76 661.88 175.02 661.86
  Q 165.88 661.85 161.70 660.29
  C 153.47 657.22 147.53 649.96 145.67 641.28
  Q 145.05 638.39 145.05 631.13
  Q 145.14 434.42 145.03 415.03
  Q 144.81 378.38 146.40 364.51
  C 156.97 272.52 216.48 191.84 303.05 157.60
  Q 332.12 146.10 366.85 140.89
  C 422.21 132.57 477.03 142.32 524.89 170.91
  Q 564.72 194.70 596.01 230.55
  C 634.63 274.79 654.58 330.92 654.74 390.00
  Q 655.08 516.84 654.83 633.26
  C 654.79 649.28 644.27 661.82 627.75 661.82
  Q 523.97 661.82 521.74 661.90
  Q 513.17 662.20 508.44 660.52
  C 499.01 657.16 493.13 649.82 490.61 639.97
  Q 489.82 636.92 489.93 629.17
  Q 490.61 581.44 490.10 507.27
  C 489.99 491.63 500.65 480.90 516.01 480.00
  C 522.60 479.62 535.09 480.04 544.71 478.91
  C 558.18 477.32 570.24 468.42 574.40 455.36
  Q 575.33 452.43 575.58 445.18
  C 576.44 420.09 577.25 405.13 576.30 384.05
  C 574.10 335.49 551.81 290.69 515.09 259.18
  C 476.13 225.74 425.24 211.22 374.20 218.72
  C 295.86 230.22 234.90 290.81 224.92 369.64
  C 222.32 390.09 222.61 407.99 223.38 431.81
  Q 223.99 450.71 225.20 454.54
  Q 228.96 466.43 240.25 473.79
  C 248.02 478.86 256.22 480.15 266.30 479.76
  Q 271.06 479.58 283.20 479.99
  Z"
/>
<path fill="#ffffff" d="
  M 397.45 264.26
  C 403.06 264.26 407.06 267.50 408.93 272.80
  Q 409.67 274.91 409.74 280.11
  Q 409.98 300.35 409.63 320.00
  A 0.80 0.80 0.0 0 0 410.23 320.79
  Q 417.68 322.69 424.11 326.40
  Q 430.54 330.12 435.92 335.61
  A 0.80 0.80 0.0 0 0 436.90 335.74
  Q 453.73 325.61 471.38 315.70
  Q 475.92 313.16 478.12 312.74
  C 483.65 311.70 488.45 313.55 491.25 318.41
  C 494.06 323.27 493.26 328.35 489.60 332.62
  Q 488.14 334.32 483.67 336.98
  Q 466.27 347.31 449.07 356.83
  A 0.80 0.80 0.0 0 0 448.69 357.74
  Q 450.77 365.15 450.77 372.57
  Q 450.77 380.00 448.70 387.40
  A 0.80 0.80 0.0 0 0 449.08 388.32
  Q 466.27 397.83 483.68 408.16
  Q 488.15 410.82 489.61 412.52
  C 493.27 416.78 494.07 421.87 491.26 426.72
  C 488.46 431.58 483.66 433.43 478.13 432.40
  Q 475.93 431.98 471.39 429.44
  Q 453.74 419.53 436.90 409.40
  A 0.80 0.80 0.0 0 0 435.92 409.53
  Q 430.55 415.03 424.12 418.75
  Q 417.69 422.46 410.24 424.37
  A 0.80 0.80 0.0 0 0 409.64 425.15
  Q 409.99 444.80 409.75 465.04
  Q 409.68 470.24 408.94 472.35
  C 407.08 477.66 403.08 480.89 397.47 480.89
  C 391.86 480.89 387.85 477.66 385.99 472.36
  Q 385.25 470.24 385.18 465.04
  Q 384.93 444.80 385.29 425.15
  A 0.80 0.80 0.0 0 0 384.69 424.37
  Q 377.23 422.46 370.80 418.75
  Q 364.37 415.04 359.00 409.54
  A 0.80 0.80 0.0 0 0 358.02 409.41
  Q 341.18 419.54 323.53 429.46
  Q 318.99 432.00 316.79 432.41
  C 311.27 433.45 306.47 431.60 303.66 426.74
  C 300.85 421.88 301.65 416.80 305.31 412.53
  Q 306.77 410.84 311.24 408.17
  Q 328.65 397.84 345.84 388.32
  A 0.80 0.80 0.0 0 0 346.22 387.41
  Q 344.14 380.01 344.14 372.58
  Q 344.14 365.16 346.22 357.75
  A 0.80 0.80 0.0 0 0 345.84 356.84
  Q 328.64 347.32 311.23 336.99
  Q 306.76 334.33 305.30 332.64
  C 301.64 328.37 300.85 323.29 303.65 318.43
  C 306.46 313.57 311.26 311.72 316.78 312.75
  Q 318.98 313.17 323.52 315.71
  Q 341.17 325.62 358.01 335.75
  A 0.80 0.80 0.0 0 0 358.99 335.62
  Q 364.37 330.12 370.80 326.41
  Q 377.23 322.70 384.68 320.79
  A 0.80 0.80 0.0 0 0 385.28 320.00
  Q 384.92 300.36 385.16 280.11
  Q 385.23 274.91 385.97 272.80
  C 387.83 267.50 391.84 264.27 397.45 264.26
  Z"
/>
</svg>
