<svg width="490" height="504" viewBox="0 0 490 504" fill="none" xmlns="http://www.w3.org/2000/svg">
<path d="M0.0404995 353.878C0.0404995 317.111 0.0124972 280.344 0.0404995 243.563C0.138508 138.723 68.6882 43.4168 169.132 12.7123C266.202 -16.9702 351.889 5.54366 422.707 77.9856C466.923 123.209 488.499 179.354 488.989 242.723C489.591 319.057 489.031 395.392 489.241 471.712C489.283 485.139 486.118 496.34 472.579 501.604C468.407 503.229 463.493 503.453 458.914 503.467C425.871 503.621 392.815 503.243 359.786 503.691C341.094 503.943 330.552 490.389 330.874 474.61C331.672 434.833 331.112 395.042 331.154 355.25C331.182 339.163 341.627 328.83 357.742 328.494C367.249 328.298 376.895 328.676 386.206 327.15C399.885 324.91 412.626 312.267 412.99 298.588C413.816 267.295 416.785 235.807 409.336 204.78C391.261 129.482 323.341 75.7314 245.999 75.5774C158.38 75.4094 86.3576 138.135 76.2908 225.222C73.5605 248.87 74.8486 273.12 75.8007 297.02C76.4868 314.395 92.6161 328.018 110.118 328.382C117.328 328.536 124.553 328.256 131.749 328.466C147.417 328.9 157.903 339.499 157.931 355.068C158.001 395.798 158.001 436.527 157.931 477.242C157.903 492.196 147.977 503.061 132.841 503.243C96.7745 503.691 60.7075 503.691 24.6405 503.341C10.2753 503.201 0.0685018 491.93 0.0404995 477.452C-0.0295063 436.261 0.0124965 395.07 0.0124965 353.878H0.0404995Z" fill="black"/>
<path d="M241.996 121.448C248.675 121.462 253.8 126.671 253.912 134.231C254.122 147.967 254.108 161.688 253.954 175.423C253.952 175.521 253.954 175.618 253.954 175.714C263.795 178.023 272.54 183.174 279.277 190.255C289.291 184.492 299.591 178.559 309.902 172.637C311.512 171.713 313.108 170.732 314.746 169.878C322.139 166.014 328.677 167.471 332.219 173.743C335.579 179.694 333.564 185.994 326.578 190.124C315.181 196.873 303.685 203.453 292.163 209.978C291.809 210.178 291.47 210.377 291.147 210.575C292.583 215.293 293.357 220.301 293.357 225.488C293.357 230.536 292.624 235.413 291.261 240.019C298.993 244.508 307.465 249.434 315.936 254.361C319.744 256.574 323.623 258.702 327.347 261.068C333.675 265.087 335.51 271.443 332.192 277.184C328.831 282.994 322.363 284.953 315.88 281.411C304.665 275.293 293.562 268.951 282.669 262.272C281.57 261.598 280.506 260.994 279.467 260.517C272.747 267.658 263.998 272.867 254.138 275.219C253.623 277.647 253.593 280.429 253.828 283.498C254.64 294.139 254.121 304.892 253.939 315.603C253.799 324.255 248.731 329.786 241.632 329.478C234.772 329.184 230.529 323.863 230.501 315.309C230.459 302.05 230.375 288.776 230.585 275.517C230.587 275.437 230.583 275.358 230.583 275.28C220.629 272.961 211.792 267.732 205.016 260.54C202.91 261.291 200.752 262.541 198.481 264.036C189.38 270.043 179.677 275.125 170.17 280.529C162.596 284.842 155.511 283.469 152.038 277.169C148.51 270.771 150.961 264.429 158.746 259.906C169.806 253.494 180.783 246.94 192.012 240.836C192.447 240.6 192.852 240.362 193.23 240.119C191.848 235.484 191.106 230.573 191.106 225.488C191.106 220.393 191.851 215.472 193.239 210.828C191.688 209.513 189.744 208.368 187.574 207.247C177.465 202.025 167.748 196.046 157.891 190.348C152.823 187.421 149.868 183.263 150.834 177.145C152.137 168.982 160.775 165.132 168.728 169.515C180.727 176.137 192.572 183.053 204.347 190.054C204.574 190.188 204.798 190.315 205.018 190.434C211.781 183.256 220.597 178.035 230.528 175.709C230.576 175.001 230.586 174.247 230.572 173.448C230.348 160.427 230.431 147.392 230.515 134.357C230.571 126.489 235.178 121.434 241.996 121.448Z" fill="black"/>
</svg>
